# xmcd CD database file
#
# Track frame offsets:
#	150
#	20245
#	42365
#	69493
#	83893
#	111037
#	130524
#	161641
#	184073
#	209746
#	224067
#	248279
#	260502
#	279556
#	285501
#
# Disc length: 4012 seconds
#
# Revision: 0
# Processed by: cddbd v1.5.2PL0 Copyright (c) Steve Scherf et al.
# Submitted via: CDex 1.77
#
DISCID=e10faa0f
DTITLE=Vincent Bourgeyx - Cosmic Dream
DYEAR=2017
DGENRE=Jazz
TTITLE0=Antoine's Song
TTITLE1=I Fall in Love Too Easily
TTITLE2=Lost Garden
TTITLE3=Middle of Nowhere
TTITLE4=Cosmic Dream for Blue Shoes
TTITLE5=Dong
TTITLE6=It's a Girl
TTITLE7=One for the Trouds
TTITLE8=Too Much Love
TTITLE9=I Love Paris
TTITLE10=Nervous Yoyo
TTITLE11=Eternal Beginning
TTITLE12=Lush Life
TTITLE13=End of Nowhere
TTITLE14=Peace
EXTD=YEAR: 2017
EXTT0=
EXTT1=
EXTT2=
EXTT3=
EXTT4=
EXTT5=
EXTT6=
EXTT7=
EXTT8=
EXTT9=
EXTT10=
EXTT11=
EXTT12=
EXTT13=
EXTT14=
PLAYORDER=
